# xmcd CD database file
#
# Track frame offsets:
#	150
#	12880
#	24712
#	38300
#	58165
#	71782
#	83592
#	96727
#	109847
#	123890
#	136947
#	150387
#	163877
#	175892
#	188780
#	201417
#	216237
#	228427
#
# Disc length: 3215 seconds
#
# Revision: 0
# Processed by: cddbd v1.5.2PL0 Copyright (c) Steve Scherf et al.
# Submitted via: CDex 1.51
#
DISCID=f80c8d12
DTITLE=Earl Father Hines - The Classic Years
DYEAR=1900
DGENRE=Jazz
TTITLE0=The Earl
TTITLE1=Smoke House Blues
TTITLE2=Ridin' a Riff
TTITLE3=The Father's Getaway
TTITLE4=Harlem Lament
TTITLE5=Piano man
TTITLE6=Chimes in Blues
TTITLE7=A Monday date
TTITLE8=Rosetta
TTITLE9=Honeysuckle Rose
TTITLE10=Blues in thirds (Caution Blues)
TTITLE11=Cavernism
TTITLE12=Solid Mama
TTITLE13=Stowaway
TTITLE14=Boogie Woogie on St Louis Blues
TTITLE15=Fifty-seven varieties
TTITLE16=Weatherbird
TTITLE17=Chicago rhythm
EXTD=
EXTT0=
EXTT1=
EXTT2=
EXTT3=
EXTT4=
EXTT5=
EXTT6=
EXTT7=
EXTT8=
EXTT9=
EXTT10=
EXTT11=
EXTT12=
EXTT13=
EXTT14=
EXTT15=
EXTT16=
EXTT17=
PLAYORDER=
